<svg
  xmlns="http://www.w3.org/2000/svg"
  xmlns:xlink="http://www.w3.org/1999/xlink"
  version="1.1"
  x="0px"
  y="0px"
  viewBox="0 0 100 125">
  <path d="M359,374 c118,-223,599,-25,599,225 c0,159,-123,177,-176,185 c-90,14,-87,125,-222,125 c-156,0,-104,-145,-173,-178 c-38,-18,-144,-12,-144,-140 c0,-109,50,-92,116,-217 Z M650,515 c-69,0,-125,56,-125,125 c0,69,56,125,125,125 c69,0,125,-56,125,-125 c0,-69,-56,-125,-125,-125 Z M600,0 c-327,0,-600,273,-600,600 c0,327,273,600,600,600 c327,0,600,-273,600,-600 c0,-327,-273,-600,-600,-600 Z M-145,0 c-55,0,-49,0,-50,50 l0,625 c1,72,-74,48,-75,300 l0,175 c1,50,1,50,25,50 c24,0,24,0,25,-50 l0,-225 c-1,-28,50,-28,50,0 l0,225 c0,50,0,50,25,50 c26,0,26,0,25,-50 l0,-225 c1,-28,49,-28,50,0 l0,225 c-1,50,-1,50,25,50 c25,0,25,0,25,-50 l0,-175 c0,-252,-75,-228,-75,-300 l0,-625 c0,-50,-6,-50,-50,-50 Z M1380,0 c-50,0,-50,0,-50,50 l0,430 c0,68,-70,-35,-70,410 c0,295,170,373,170,259 l0,-1099 c0,-50,0,-50,-50,-50 Z M1380,0 "
    fill="white"
    stroke="black"
    stroke-dasharray="none"
    stroke-linecap="inherit"
    stroke-linejoin="inherit"
    stroke-width="20"
    transform="matrix(0.05,0.0,0.0,-0.05,20.0,80.0)"
    />
  </svg>
