<svg xmlns="http://www.w3.org/2000/svg"
  xmlns:xlink="http://www.w3.org/1999/xlink"
  version="1.1" x="0px" y="0px" viewBox="0 0 100 125"><g><g>
  <path fill="white" d="M80.4,61.8v-1.7c0-1.1-0.9-2-2-2h-2.2c0.4-2.5,0.6-5.1,0.6-7.8C76.8,30.1,65.1,6.7,50,6.7S23.2,30.1,23.2,50.3    c0,2.7,0.2,5.4,0.6,7.8h-2.2c-1.1,0-2,0.9-2,2v1.7c0,8.9,4.7,17.1,12,21.7c-1.5,1-2.4,2.6-2.4,4.5c0,3,2.4,5.4,5.4,5.4h30.9    c3,0,5.4-2.4,5.4-5.4c0-1.9-1-3.5-2.4-4.5C75.7,78.9,80.4,70.7,80.4,61.8z M27.2,50.3c0-17.9,10.2-39.6,22.8-39.6    s22.8,21.7,22.8,39.6c0,2.8-0.3,5.4-0.7,7.8H27.9C27.4,55.6,27.2,53,27.2,50.3z M60.4,82.6c-1,0.3-1.6,1.2-1.5,2.2    c0.1,1,1,1.7,2,1.7h4.5c0.8,0,1.4,0.6,1.4,1.4s-0.6,1.4-1.4,1.4H34.5c-0.8,0-1.4-0.6-1.4-1.4s0.6-1.4,1.4-1.4H39    c1,0,1.9-0.7,2-1.7c0.1-1-0.5-1.9-1.5-2.2c-9.3-2.5-15.8-10.9-16-20.5h2.7c0,0,0,0,0,0h47.3c0,0,0,0,0,0c0,0,0,0,0,0h2.6    C76.3,71.7,69.7,80.1,60.4,82.6z"
    stroke-dasharray="none"
    stroke-linecap="inherit"
    stroke-linejoin="inherit"
    stroke-width="1"
  /></g></g>
</svg>
