<svg version="1" xmlns="http://www.w3.org/2000/svg" width="3333.333" height="3333.333" viewBox="0 0 2500.000000 2500.000000"><path d="M1217.7 175.7c-.2.2-4.9.6-10.3.8-12.7.6-29.7 1.9-41.9 3-2.7.3-7.2.8-10 1-5.2.5-6.7.7-22 2.5-9.1 1.1-11.1 1.4-22 3-3.3.5-8.2 1.2-11 1.5-2.7.4-5.7.8-6.5 1-.8.3-3.3.7-5.5 1.1-3.4.5-24.5 4.3-32.5 5.8-1.4.2-5.7 1.1-9.5 2-3.9.8-8.3 1.7-9.8 2-1.5.2-3.5.7-4.5 1-.9.3-2.8.7-4.2 1-1.4.2-9 2.1-17 4.1-8 2-15.4 3.8-16.5 4-3.6.8-27.9 7.6-35.5 9.9-4.1 1.3-12.2 3.8-18 5.6-5.8 1.8-11.4 3.6-12.5 4-1.1.4-6.3 2.2-11.5 4-10.9 3.7-30.5 10.8-33.5 12-1.1.5-7.6 3.1-14.5 5.9-68.6 27.2-135.5 62.3-196.8 103.3-15.9 10.6-41.6 28.6-47.7 33.5-1.6 1.3-3.5 2.7-4 3.1-4.3 3.1-13.1 9.8-13.5 10.2-.3.3-3.6 3-7.5 6-3.8 3-7.5 5.9-8.1 6.5-.7.5-3.1 2.6-5.5 4.5-39.9 32-94.4 85-131.5 127.9-1.6 1.9-3.4 3.9-3.9 4.5-.6.6-4.5 5.4-8.9 10.6-4.3 5.2-8.8 10.6-10 12-1.2 1.4-3.5 4.3-5.1 6.5-1.7 2.2-3.3 4.2-3.6 4.5-.3.3-4.4 5.4-9 11.5-50 65.3-93.2 137.3-126.4 210.5-8 17.7-9.3 15.7 10 15.7 15.9 0 16.5-.1 17.1-2.1.3-1.2 7.5-16.1 15.9-33.1C352.3 742.3 374 705 401.8 664c11.2-16.6 34.4-48.6 41.1-56.6 1.4-1.8 3.7-4.7 5.1-6.5 1.4-1.8 5.1-6.5 8.3-10.3 3.2-3.9 6.6-8 7.5-9.1 2.7-3.3 12.6-15 13.2-15.5.3-.3 3.4-3.9 7-8s8.6-9.7 11.2-12.5c2.5-2.7 6-6.6 7.8-8.5 6.8-7.6 37.4-38.1 49.1-49.1 13.5-12.7 16.7-15.6 30.9-27.9 5.2-4.5 10.9-9.4 12.5-10.9 10.6-9.3 45.6-36.3 65-50.2 22.4-16.1 62.5-42 80.5-52.1 2.5-1.4 8.9-5.1 14.2-8.2 5.3-3.1 9.9-5.6 10.2-5.6.3 0 2.9-1.4 5.8-3.1 5.1-3.1 54.3-27.9 55.2-27.9.2 0 4.2-1.8 8.8-3.9 39.4-18.4 91.3-37.6 139-51.5 15.2-4.4 48-13.1 52.8-14 1.4-.2 5.7-1.2 9.5-2.1 6.8-1.6 28.5-6.1 33.5-7 4.6-.8 8.5-1.5 11-2 6.4-1.2 7.8-1.5 11.5-2 2.3-.3 5-.7 6-.9 3-.5 15.5-2.5 19.5-3 1.9-.3 7.3-1 12-1.6 4.7-.6 9.9-1.2 11.5-1.5 1.7-.2 5.7-.7 9-1 3.3-.3 9.6-1 14-1.4 4.4-.5 8.7-.9 9.5-.9.8 0 4.2-.3 7.5-.6 21.3-2.1 46.9-3 84-3 37.3 0 55.4.7 82.5 2.9 4.7.4 10.3.8 12.5 1 2.2.2 6.4.6 9.2.9 2.9.4 7.7.9 10.5 1.1 7 .7 20.7 2.4 23.8 2.9 1.4.3 4.5.7 7 1 2.5.3 5.4.8 6.5 1 1.1.2 4.2.7 6.8 1 2.7.4 5.6.9 6.5 1 1 .2 4 .7 6.7 1.1 2.8.5 5.2.9 5.5 1 .3 0 2.6.4 5.1.8 7.7 1.3 10 1.7 22.4 4.2 22.6 4.6 30 6.4 52 12 23.4 5.9 49.3 13.5 72.1 21.1 14.5 4.8 53.8 19.2 60.8 22.4 2.3 1 8.2 3.4 13.1 5.5 47.7 19.8 100.3 47.1 146.5 75.9 12.7 7.9 42.7 27.6 45.5 29.8.6.5 9.1 6.7 19 13.9 14.7 10.8 41.8 31.8 51.8 40.2 10.2 8.6 12.2 10.3 13.1 11.2.6.5 4.7 4.1 9.1 8 27.1 23.6 60.9 57.1 85.5 84.5 4.7 5.2 8.7 9.7 9 10 .3.3 3.6 4.1 7.4 8.5 3.8 4.4 7.9 9.2 9.1 10.6 19 22 52.3 66.9 73.7 99.4 7.9 12.2 10.2 15.8 21.3 34 4.5 7.4 17.6 30.2 21.2 37 1.2 2.2 3.7 6.9 5.7 10.5 4.7 8.6 19.2 37.7 25.4 51.2l5 10.6 16.4-.1h16.5l-4.9-11.1c-9.1-20.5-32-65.9-43.4-86.1-4.4-7.9-3.8-6.9-11.9-20.5-3.3-5.6-6.7-11.4-7.5-12.8-.8-1.5-1.8-2.9-2.2-3-.5-.2-.8-.8-.8-1.3 0-2.8-43.7-67.1-57.7-84.9-2.4-3-4.7-6-5.1-6.5-.7-.9-13.9-17.8-16.8-21.4-9.5-12.1-41.2-48.4-53.1-60.9-21.7-22.8-47.3-47.7-69.7-67.7-4.4-3.9-8.4-7.5-9-8-.6-.6-3.8-3.2-7.1-6-3.3-2.7-6.2-5.2-6.5-5.5-.3-.3-4.1-3.5-8.5-7s-8.2-6.7-8.5-7c-.7-.9-30.8-24.1-35-27-1.9-1.3-3.9-2.8-4.5-3.3-9.3-7.8-86.4-58.7-89.1-58.7-.2 0-3.2-1.7-6.6-3.8-22.2-13.6-70.8-38.3-103.8-52.9-47.6-21-103.6-41.1-143-51.4-4.1-1.1-8.2-2.3-9-2.6-1.8-.8-1.5-.7-6.5-1.8-2.2-.4-4.4-.9-5-1-.5-.2-3.5-1-6.5-1.9-6.1-1.7-42.7-10.2-47.5-10.9-1.6-.3-4.1-.8-5.5-1.1-1.4-.3-3.8-.8-5.5-1.1-1.6-.3-5.5-1-8.5-1.6-7.5-1.3-15.7-2.7-20.5-3.4-2.2-.4-4.7-.8-5.5-1-.8-.3-3.7-.7-6.5-1-2.7-.3-5.7-.8-6.5-1-.8-.2-3.9-.7-6.9-1-3-.4-6.2-.8-7.2-1-2.1-.4-8.6-1.3-15.1-2-2.7-.3-6.7-.7-9-1-7-.8-12.9-1.4-20.3-2-3.8-.3-8.8-.8-11-1-2.2-.2-8.5-.7-14-1.1-5.5-.3-12.7-.8-16-1.1-7.5-.5-104.3-1.1-104.8-.6z"/><path d="M1237.7 273.6c-.1.1-7.8.5-17.2.9-9.3.3-18.8.8-21 1-2.2.2-8 .6-13 1-4.9.3-10.1.8-11.5 1-1.4.2-5.8.7-9.9 1-4.1.4-8.4.9-9.5 1.1-1.2.2-4.6.6-7.7.9-3.1.3-7.1.8-9 1.1-1.9.2-5.1.6-7.1.9-2.1.2-5 .6-6.5.9-1.5.3-4.8.8-7.3 1.2-6.4.9-8 1.2-12.5 1.9-5 .8-17.7 3.2-27.5 5.1-4.1.9-8.6 1.7-10 2-2 .4-6.3 1.3-9 1.9-.9.2-11.4 2.5-13.5 2.9-1.1.3-9.9 2.5-19.5 5.1-9.6 2.5-18.5 4.8-19.7 5-4.4 1-38.3 11.5-50.8 15.8-24.7 8.5-48.1 17.3-59 22.2-1.6.7-5.2 2.2-8 3.3-2.7 1.1-7.9 3.3-11.5 5-3.6 1.6-9 4-12 5.3-11.8 5-62.5 31-78 40-15.3 9-31.8 19-43.3 26.3-40.4 26-90.9 64.4-122.7 93.6-1.5 1.4-7.1 6.5-12.6 11.5-16.9 15.5-44.8 43.9-62.4 63.5-4.7 5.2-8.7 9.7-9.1 10-.3.3-2.9 3.4-5.8 7-3 3.6-5.7 6.7-6 7-.4.3-2.2 2.5-4.1 5-1.9 2.5-3.7 4.7-4 5-3.1 2.8-27.6 35-41.2 54-13.9 19.7-34.9 52-43.3 66.7-21.4 37.6-35.2 64.1-47.3 90.8-7.6 17.1-8.7 15.2 8.4 15.2h14.7l3.9-8.6c38.3-83.8 91-163.4 157.2-237.6 9.9-11 54.3-55.5 64.5-64.6 4.6-4.1 9.4-8.3 10.6-9.4 6-5.3 18.2-15.7 26.9-22.9 8.9-7.3 30.1-23.6 43.6-33.4 14.8-10.8 41.7-29.2 42.7-29.2.3 0 2-1.1 3.7-2.3 4.5-3.4 43-26.7 44.1-26.7.2 0 3.6-1.9 7.7-4.3 17.2-10.2 66-33.6 95.8-46 40.2-16.7 94-34.1 136.6-44.2 4.6-1.1 43.2-9.4 45.9-9.9 7.9-1.4 26.5-4.5 30.5-5.1 2.5-.3 6.1-.9 8-1.1 1.9-.3 4.6-.7 6-.9 8-1.2 25-3.3 33.5-4 3.3-.3 7.8-.8 10-1 35-4 107.7-4.9 146-2 2.8.2 8.6.6 13 1 8.1.6 13.6 1 23.4 2 6 .5 21.2 2.4 25.1 3 1.4.2 6.3.9 11 1.5 8.9 1.2 10.2 1.4 16 2.5 1.9.3 4.6.8 6 .9 3.6.5 17.8 3.1 38.8 7.2 1.2.2 5.9 1.3 10.5 2.4 4.5 1 9.3 2.1 10.7 2.4 1.4.2 7.9 1.8 14.5 3.6 6.6 1.7 12.9 3.3 14 3.6 1.1.2 7.4 2 14 3.9 6.6 2 12.7 3.8 13.5 4 19.8 5.1 80 27.2 104 38.2 3 1.4 9.4 4.3 14.3 6.4 4.8 2.1 10.6 4.9 13 6.1 2.3 1.2 4.4 2.3 4.7 2.3.8.2 28.5 14.2 35.8 18.2 52.7 28.6 97.9 58.6 143 94.6 10.2 8.2 19 15.4 19.7 16 .6.7 3.6 3.2 6.5 5.7 20.4 17.2 48.3 43.9 73.5 70.4 7.9 8.3 33.1 37.1 40.5 46.2a965 965 0 0 1 8.3 10.4c3.8 4.7 7.4 9.2 8 10 .7.8 5.8 7.6 11.3 15 38.8 52.2 74.5 112.2 100.1 168.6l3.3 7.1h14.5c8 0 14.5-.3 14.5-.7 0-2.8-22.3-49.2-34.6-72-21.7-40.3-47.4-80.6-75.8-119-12.8-17.3-44.9-56.8-55.1-67.6-.5-.6-5.3-5.8-10.5-11.5-10.3-11.3-41.6-42.8-52.1-52.4-11.2-10.4-27-24.4-29.4-26.2-.6-.5-2.8-2.4-5.1-4.3-28.9-25.2-83.7-65-117.4-85.4-5.2-3.1-10.2-6.1-11-6.6-19.1-11.7-41.1-23.6-69-37.4-22-10.9-28.2-13.8-42.5-19.8-3.8-1.7-8.8-3.8-11-4.8-4.6-2-31.1-12.4-43-16.8-14.4-5.4-50.1-17-65-21.2-25.8-7.2-77.9-19.2-93.5-21.5-2.4-.4-4.7-.8-5-1-.3-.1-2.7-.6-5.5-1-2.7-.4-6.3-.9-8-1.1-1.6-.3-4.3-.6-5.8-.9-1.6-.2-4-.6-5.5-.9-1.5-.3-4.9-.8-7.7-1.1-2.7-.3-6.1-.7-7.5-1-1.4-.2-5.2-.7-8.5-1-3.3-.4-7.6-.9-9.5-1.1-3.9-.5-9.5-1.1-19-1.9-3.6-.3-8.7-.8-11.3-1-2.6-.3-8.5-.7-13-1-4.5-.2-12.7-.7-18.2-1.1-9.4-.6-73.2-1.3-73.8-.8z"/><path d="M1182.4 665.6c-6.5 2.6-8.7 4.4-10.8 8.8-1.6 3.4-1.1 8.3 1.4 12.2 2.7 4.4 12.6 9 21.4 10 18.5 2.1 26.6 5.4 26.6 10.9 0 5.6-7.7 9-18.4 8.2-8.1-.6-14.2-2.7-20.4-7.1-3-2.1-5.6-3-8.7-3.2-2.5 0-4.5.2-4.6.5-.1.3-.2 4.1-.3 8.4l-.1 7.7h5.3c5.1 0 5.2 0 5.2-3 0-1.7.2-3 .5-3s2.8 1.2 5.6 2.6c8.6 4.3 22.2 6 31.7 3.9 16.3-3.5 21.7-19.1 9.6-27.4-4-2.7-13.4-5.6-21.5-6.4-3-.4-6.2-.9-7-1.1-.8-.3-2.5-.7-3.9-1-7.6-1.3-11.9-5.2-10.4-9.3 1.4-4.2 6.7-6.7 13.9-6.7 8.8 0 14.7 2 19.7 6.6 4.2 3.9 5.5 4.3 12.3 3.9 1.9-.1 2.1-.7 2.1-8.1-.1-5.7-.4-8-1.3-8.1-8-.7-8.8-.4-9.1 2.9l-.3 3.2-2.5-1.9c-7.9-6.2-25.2-7.9-36-3.5zM1455.4 664.4c-15.2 3.7-24.6 15.3-24.8 30.1-.1 8 2.3 13.7 7.9 19.2 8 7.8 23.6 11.4 38.6 9 12.4-2.1 23.3-11.8 25.6-22.7 2.6-12.3-1.5-23.7-11-30.7-7.4-5.4-24.7-7.8-36.3-4.9zm22.8 7.9c8.2 3.5 13 10.5 13.4 19.6.4 10.2-3.9 17.4-13.1 21.7-4.2 2-6.3 2.3-13.1 2-9.6-.3-15.8-3.3-20-9.6-5.3-7.9-4-21.2 2.6-28 7-7.1 20.6-9.7 30.2-5.7z"/><path d="M1460.6 674.5c-9 2.3-14.8 9.4-15.2 18.6-.4 8.3 4.3 15.1 12.9 18.7 3.7 1.6 3.5.6-.3-1.3-10.3-5.4-13.6-16.4-7.8-26.6 4.5-8.1 18.4-10.9 28.6-5.8 2.9 1.4 4.7 2 4.1 1.3-1.8-2.2-9.3-5.4-13.6-5.7-2.3-.2-6.2.2-8.7.8zM1024.2 665c-.4.3-.7 1.8-.7 3.5 0 3 0 3 6.1 3.3 4.9.2 6.3.7 6.6 2 .3 1.4.2 33.8-.1 39.5-.1 1.4-.8 1.8-2.8 1.7-1.6-.1-4.3-.2-6-.1-3.1.1-3.3.3-3 3.3l.3 3.3 25.4.2c34.5.3 41.5-1.4 45.3-10.6 3-7.1-1.9-15.9-9.8-17.7l-3-.7 2.5-1.1c7-3.1 10-6.9 10-12.7 0-7.2-6.1-12.2-16.3-13.4-6.8-.9-53.5-1.3-54.5-.5zm52.3 8.1c4.8 1.2 7.6 5 6.7 9.4-1 5.6-5.8 7.2-22.4 7.4l-13.8.2V672h12.6c6.9 0 14.5.5 16.9 1.1zm-2.2 23.3c7.9 1.3 11.9 7 9 12.9-2.1 4.2-5.3 5-21.5 5.3l-14.8.4v-9.3c0-5.2.2-9.6.4-9.8.6-.6 22.4-.2 26.9.5z"/><path d="M1050.2 681c-.1 3.3.3 6 .8 6 1.1 0 1.3-1.6 1-6.9l-.2-3.4 13.8.5c11.7.4 13.3.3 10.3-.8-2-.6-8.5-1.2-14.5-1.3l-11-.2-.2 6.1zM1050.1 704.9c-.1 3.3.3 6.2.9 6.6 1.1.7 1.3-.8 1-6.8l-.2-3.7 4.9-.1c13.2-.2 20.3.3 22.5 1.7.7.4.8.3.4-.4-1.2-2-8-3.2-18.7-3.2h-10.6l-.2 5.9zM1114.4 664.9c-.2.2-.4 1.9-.4 3.8v3.3h12.6l-.1 20.2c-.1 11.2-.3 20.8-.3 21.5-.1.7-2 1.2-4.9 1.1-8.1 0-8-.1-7.9 3.7l.1 3.5 18-.2 18-.3.1-3.3c0-3.5-.1-3.5-8.8-3.4l-3.7.1-.1-21.4-.1-21.5h13.1v-3.5c0-2.1-.5-3.5-1.2-3.6-3.9-.4-34-.3-34.4 0zM1249.7 665.5c-.2.5-.3 4.8-.3 9.5l.1 8.5h10l.3-5.8.3-5.7H1281.8v21.5l.1 21.5-5.7-.1c-10.1-.2-9.9-.3-10 3.6l-.1 3.5h41.9v-3.5c0-3.1-.3-3.5-2.7-3.6-1.6 0-5-.1-7.8-.2l-5-.2-.2-21.3-.1-21.2h10.9c6 0 10.9.3 11 .7 0 .5.1 3.2.2 6l.2 5.3h10.3l.1-9.5c.1-5.2-.2-9.5-.7-9.6-.4-.1-17.2-.2-37.4-.2-23.8-.1-36.9.2-37.1.8zM1340.2 668l.3 3.5 6.3.3 6.2.3-.2 21.2-.3 21.2h-11l-.3 4-.3 4 16.9-.3 16.9-.3v-3.4c0-3.2-.3-3.5-3.1-3.6-8.8-.3-8.1.5-8.2-8.5l-.2-8.2 8.8.2c7.4.2 9.4.6 13.2 2.9 2.6 1.5 5.9 4.7 7.7 7.4 3.4 5 3.8 6.5 1.9 6.2-.7-.1-3.2-.1-5.4 0-4.1.1-4.2.2-4.2 3.6v3.5h32.8v-3.5c0-3.7-.4-3.9-6.2-3.5-2.1.1-3-.6-4.3-3.4-1.8-3.7-10.9-13.6-12.6-13.6-.5 0-.9-.5-.9-1.1 0-.5.4-.8.9-.5 1.7 1.1 11-4.5 13.1-7.8 3.8-6.3 2.2-15.6-3.4-19.3-6.2-4-10.9-4.5-38.4-4.7l-26.3-.1.3 3.5zm50.3 5c10.9 2.5 11.2 13.9.4 16.8-2 .5-9.1 1-15.7 1.1l-12 .1v-8.8c0-4.8.2-9 .5-9.5.6-1 22-.8 26.8.3z"/><path d="M1366.8 676.1c-.8 2.6-.2 11.3.8 11.6.6.2 1-1.8.9-5.3l-.2-5.6 13.3.4c8.7.2 12.8 0 11.7-.6-1-.5-7.2-1.1-13.9-1.4-9.6-.4-12.2-.2-12.6.9zM1093.6 669c3.1 3.4 5.1 8 4.8 11-.1.8-.2 2.4-.3 3.4 0 1.1-1.9 3.6-4.1 5.7l-4 3.8 2.8 1.5c10 5.2 7.9 22.7-3.3 27.2-2.2.9-4.8 1.8-5.8 2-1 .2-2.7.6-3.7.9-1 .3-13.3.6-27.4.7-14.1.1-25.6.6-25.6 1 0 .5 11.8.8 26.3.7 29.6-.1 35.2-1.1 42-7.1 7.4-6.7 8.1-18.3 1.3-24.5-2.8-2.6-3.3-3.5-2.1-3.9 2.5-1 5.6-7.1 5.7-11.2 0-5.1-1.9-8.9-6.2-12.1l-3.5-2.5 3.1 3.4zM1153 671v3.9l-6.2.3-6.3.3v18.2c-.1 10.1.3 18.3.7 18.3 1 0 1-1.2.9-20.3V677h12.9v-5c0-2.8-.4-5-1-5-.5 0-1 1.8-1 4zM1234.9 670.2c0 1.8-.1 5.8-.2 8.8l-.2 5.5h-4.7c-2.5 0-5 .3-5.4.7-.7.8 1.2 1 7.1 1 5.4 0 5.2.3 5.3-9.7.1-5.6-.2-9.5-.8-9.5-.6 0-1 1.5-1.1 3.2zM1328 677v10l-2.7.1c-1.6.1-3.8 0-5 0-1.1-.1-2.4.3-2.8.8-.4.7 1.6 1.1 5.9 1.1h6.6v-11c0-6.7-.4-11-1-11s-1 4-1 10zM1409.8 671.4c1.7 2 3.3 4.7 3.4 5.9.7 10.8-2 15.4-12 20.4-.2.1.9 1.6 2.5 3.3 1.5 1.7 3.7 4.8 4.9 6.8 1.1 1.9 2.6 3.8 3.3 4 1.6.5-1.1-5-5-9.9l-2.8-3.5 3-1.8c10-5.9 11.2-21.3 2.1-27.2-2.5-1.6-2.5-1.5.6 2zM1497.6 671.7c10.3 10.9 11.9 27.7 3.8 39.4-2.8 4-11.7 11.6-12.6 10.8-.3-.2-1.1.1-1.9.8-2.5 2-12.2 3.9-19.4 3.8-10.3-.2-15.5-1.4-23.7-5.7-3-1.5-2-.2 2 2.5 2 1.4 4.9 2.8 6.5 3.1 1.5.4 3.9.9 5.5 1.2 8.8 1.9 23.3.2 31.7-3.7 7-3.3 14.5-11.2 17-18 2.7-7.4 2.6-17.9-.2-24.1-2.1-4.5-9.7-13.8-11.4-13.8-.4 0 .8 1.7 2.7 3.7zM1194 674c-1.9.3-4.4 1.2-5.5 1.8-1.8 1.1-1.6 1.2 1.3.7 6.6-1.3 13.7-1.3 17.4 0 4.3 1.4 5.2.3 1.1-1.4-3.5-1.4-9.7-1.9-14.3-1.1zM1026.4 676.2c-.3.4 1.3.8 3.5.8 2.3 0 4.1-.5 4.1-1 0-1.2-6.9-1-7.6.2zM1117 676c0 .5 1.8 1 4 1s4-.5 4-1c0-.6-1.8-1-4-1s-4 .4-4 1zM1262.8 681.2l-.3 6.2-4.6-.2c-2.6-.2-5 .1-5.4.7-.4.7 1.5 1.1 5.9 1.1h6.6v-12h7.5c4.1 0 7.5-.4 7.5-.9s-3.8-.9-8.5-1l-8.4-.2-.3 6.3zM1295.5 693.6c0 11.8.4 18.3 1 18.1.6-.2 1-6.9 1-17.3v-16.9l8-.5c10.1-.6 8.3-2.2-2.3-1.9l-7.7.2v18.3zM1343 676c0 .5 1.6 1 3.5 1s3.5-.5 3.5-1c0-.6-1.6-1-3.5-1s-3.5.4-3.5 1zM1172.5 692.2c.8 2 6.5 5.5 11.5 7.1 4.2 1.4 7.4 2 18 3.2 4.4.6 10.5 2 13.7 3.2 1.1.4 1.4.2.9-.5-.9-1.5-9.4-3.9-16.1-4.7-13-1.5-18.9-3.1-24.2-6.7-2.4-1.6-4-2.3-3.8-1.6z"/><path d="M1235.5 702.2c3.2 11.1-3.1 19.5-17.6 23.3-9.3 2.5-21.2 1.1-34.4-4-1.1-.5-1.7-.5-1.3 0 .4.4.3 1.5-.2 2.5-.7 1.3-1.9 1.6-5.4 1.4-2.5-.2-4.8.1-5.1.7-.5.6 1.6.9 6.2.7 4.8-.2 6.7-.7 6.6-1.6-.4-1.5-.1-1.5 4.4.3 8.9 3.4 21.9 3.9 32 1 13.6-3.8 21-15.5 15.9-25.3-2.3-4.4-2.6-4-1.1 1zM1366.9 702.4c-.5 5.1-.2 9 .7 9.3.7.2 1-1.1.9-3.6-.1-3 .2-4.2 1.4-4.5 2.1-.6 10-.1 12.9.8 1.2.4 2.2.5 2.2.1 0-2.2-17.9-4.3-18.1-2.1zM1153 720.9c0 2.6-.5 4.1-1.2 4.2-.7 0-8.5.1-17.3.1s-16.7.4-17.5.9c-.9.5 6.7.9 18.1.9h19.5l.3-4.4c.1-2.4-.3-4.7-.9-5.1-.6-.4-1 .9-1 3.4zM1312 717c-.2.3-.4 2-.4 3.7-.1 1.8-.5 3.6-.9 3.9-.4.4-9.7.7-20.7.7-11.2-.1-20.2.3-20.6.8-.3.5 8.3.9 21.4.9h22l.4-2.3c.4-2.1-.7-8.8-1.2-7.7zM1378 720.8c0 3.7-.3 4.2-2.2 4.3-1.3 0-8.9.1-17 .1-8.2.1-14.8.5-14.8 1s8 .7 17.8.6l17.7-.3.3-3.9c.2-2.1-.1-4.3-.7-4.9-.8-.8-1.1.1-1.1 3.1zM1421.7 717.7c-.4.3-.7 2.2-.7 4.2v3.6l-16.5-.1c-9.1-.1-16.8.2-17.1.7-.3.5 7.4.9 17.5.9h18.1v-5c0-5.1-.1-5.5-1.3-4.3zM1297.8 1085.5c-.2.1-3.4.5-7.3.9-12.6 1.1-21.1 3-33 7.2-28 10-50.1 29.9-60.5 54.3-11.1 26-10 58.8 2.6 80.4 14.3 24.6 38.9 40.8 72.4 47.9 13.3 2.8 14.4 2.9 33.5 3.2 26.2.4 45-3.2 64.4-12.4 41.2-19.7 60.5-58.1 52.5-104.6-2.9-17.3-11.8-34.9-23.3-46.1-6-5.9-10-9.3-11-9.3-.5 0-1.5-.7-2.2-1.6-1.8-2.2-19.9-10.8-27.9-13.2-7.7-2.3-20.2-4.9-28.4-5.8-5.7-.6-31.3-1.3-31.8-.9zm27.7 25c11.5 2.1 24.9 7.2 32.8 12.6 7.2 4.9 16.6 15.8 20.7 24.1 6.2 12.7 7.9 20.8 7.6 36.3-.2 7.1-.6 14.2-1 15.7-1.1 4.8-5.8 17.2-7 18.8-.7.8-1.8 2.8-2.6 4.3-2 4-13.6 15.8-19 19.4-22.3 14.8-54.1 18.6-82 9.7-23.8-7.6-41.4-25.8-46.7-48.4-7-30.2 4.5-62.5 28.2-79 9.4-6.5 23.2-11.9 35.5-13.8 6.3-1 27.6-.8 33.5.3z"/><path d="M1301.7 1119.6c-.1.1-3.1.5-6.7.8-7.9.9-19.7 4.7-26.9 8.8-7.3 4.2-17.4 13.9-21.5 20.7-8.3 13.6-11.6 33.1-8.2 48.4 4 17.9 14.4 31.1 31.4 39.7 5.6 2.8 19.2 7.4 19.2 6.5 0-.2-2.6-1.6-5.7-3.1-15.1-7.2-27.9-18.8-33.9-30.6-5-9.8-6.4-16.3-6-27.8.2-8.2.9-12.2 2.9-18 3.1-8.6 10-19.3 15.3-23.5 2.1-1.7 4.3-3.6 5-4.3 2.3-2.3 14.9-8 21.3-9.7 11.3-2.9 25.3-2.9 40.5 0 10.6 2.1 30 11.8 33.8 17 .5.7.8.6.8 0 0-1.3-7.1-8.2-12-11.7-8.7-6.3-19.8-10.7-30.5-12.3-4.3-.6-18.3-1.3-18.8-.9zM199.2 1090.7c-.9.4-.7 22.1.2 23 .4.4 9.5.7 20.4.8h19.7l.1 68.6.2 68.5-17.7-.1c-9.7 0-18.4.1-19.3.3-1.6.4-1.7 1.7-1.5 12l.2 11.7H410v-5.3c.1-6.8.1-46.2 0-55v-6.7l-16 .1c-8.8 0-16.3.3-16.6.7-.4.4-.8 10-.8 21.4l-.1 20.8-50 .1c-27.5.1-50.7 0-51.5-.2-1.3-.3-1.5-8.8-1.5-68.6v-68.3H294l20.5-.1.3-11.9.3-12h-57.6c-31.6 0-57.8.1-58.3.2zM465.9 1091c-.4 1.8-.3 22.3.1 22.9.3.3 9.3.6 20 .6h19.5v137H486c-10.7 0-19.7.3-20 .7-.3.4-.5 5.8-.5 12l.1 11.3h220.8v-28.4c.1-15.5-.1-28.6-.4-29-.3-.3-7.8-.6-16.7-.6l-16.3-.1v34.2h-55.7c-30.7 0-56-.3-56.3-.7-.4-.6-.5-54.4-.1-58.5.1-.7 11.9-1 37.1-1l37 .1V1173l-37.2-.2-37.2-.3-.1-29v-29.1h56.3l56.2.1v34h33.4l.1-28.8c0-24.8-.2-28.7-1.5-28.8-5.3-.4-219-.3-219.1.1zM849.7 1091.5c-.2.9-.1 21.2.2 22.5.1.3 9 .5 19.8.5h19.8v137h-17.7c-9.7.1-18 .4-18.5.8-1.1 1.2-1 22.7.2 22.8 5.8.7 108.8.2 109.3-.5.6-1 .4-21.5-.2-22.5-.2-.3-9.2-.6-20-.5H923v-129.1l8.8 9c8.4 8.8 33.6 35.3 40.2 42.5 3.4 3.7 25 26.5 33.5 35.5 7.6 8 31.4 33.2 38.6 40.8 3.5 3.8 10.5 11 15.4 16.1l9 9.3 15.5-.2 15.5-.1.2-79.9c.1-44 .2-80.3.2-80.6.1-.3 9-.5 19.9-.5h19.7v-23.8l-55.5-.1c-30.5-.1-56 .1-56.6.3-.8.2-1.1 4.2-1 12l.1 11.7 19.8-.1c17.3-.1 19.7.1 19.8 1.5.1.9.2 25.8.3 55.4l.1 53.8-14.5-14.9c-8-8.2-23.9-24.7-35.5-36.7-25.3-26.2-26.5-27.4-53.2-55.1-11.6-12-22.3-23.2-23.9-24.9l-2.7-2.9-43.3-.1c-28.1 0-43.5.4-43.7 1zM1471.9 1090.5c-.1 0-.3 14.1-.4 31.2l-.2 31.3h33.5v-14.3c0-7.8.1-16.5.1-19.3l.1-5 34.8.2c19.1 0 34.9.2 35.2.3.3 0 .5 30.8.5 68.4v68.2H1525v11.7c0 8.7.3 11.8 1.3 11.9.6.1 30.8.2 66.9.3 43.2.1 65.8-.2 65.9-.9.5-4.3.4-20.3-.2-21.5-.6-1.3-4.4-1.5-25.3-1.4l-24.6.1v-137.2l35.4-.1h35.3l.1 17.6c0 9.6 0 18.3.1 19.2.1 1.6 1.6 1.8 16.6 1.8h16.5v-12.8c.1-23.7.1-31.7.1-40.7l-.1-9h-241.1zM1763.9 1090.8c-1.3.2-1.5 2-1.4 11.5.2 6.2.3 11.4.4 11.7 0 .3 9.1.5 20.1.5 11-.1 20 .2 20.1.5.3 1.4.4 134.6.1 135.6-.2.7-6.5 1-18.8 1-15.6-.1-18.7.1-19.3 1.4-.5 1.2-.7 15.1-.2 21 .1 1.3 6.8 1.5 53.9 1.5h53.7l.3-12 .3-12-18.1.1-18 .1V1199h24.3c19.5 0 25.4.3 29.8 1.6 16.7 5 33 17.7 43.7 34.3 4.1 6.5 8.4 15.9 7.4 16.4-.4.2-8.2.4-17.5.3-9.2 0-16.8.1-16.8.4-.7 3-.2 23 .6 23.1 3.4.4 103.5.3 103.6-.1.7-3 .2-23-.6-23.3-.5-.2-7.4-.3-15.2-.2-11.2.2-14.3-.1-14.3-1.1 0-2.5-5-12.6-9.7-19.7-6.3-9.5-20.9-24-30.6-30.5l-7.7-5.1 4.2-1.1c15.5-4 25.5-8.9 35.6-17.5 1.3-1.1 4.1-4.6 6.3-7.9 11.8-17.7 9.6-44.2-5-58.5-10.6-10.4-27.3-16.1-54.6-18.7-6.9-.6-153.5-1.2-156.6-.6zm158.1 25.7c10.1 2.3 17.4 5.9 22.2 10.8 5.3 5.5 7 9.9 7 17.7 0 10.9-4.1 17.8-13.5 22.6-5.7 2.9-17.7 6.1-26.2 6.8-7.2.7-73.5.9-74.1.3-.4-.3-.6-30.7-.4-54.8v-5.6l38.8.2c32.7.2 39.9.5 46.2 2z"/><path d="M1848.2 1125.5c-1 1.4-.9 40.5 0 40.6.4.1 1.4.2 2.1.3 2.9.5 3.2-1.6 3.1-18.3 0-11.5.3-17.1 1-17.4 1.4-.5 60.8.1 65.6.7 8.5 1 12.3 1.7 16.3 3.1l4.2 1.4-3.5-3c-4.7-3.9-14.2-6.8-25.4-7.5-15.9-1.1-62.7-1-63.4.1zM2058.4 1090.9c-.2.2-.4 5.6-.4 12v11.6h40v137.1l-20-.1h-20v24l109.2-.1c60.1-.1 109.8-.2 110.5-.3.8-.1 1.1-7.6 1.2-28.9v-28.7h-33.4l-.2 15c0 8.3-.2 15.9-.2 17.1-.1 2-.3 2-56.1 2h-56v-60.2l37 .1c23.8 0 37.1-.4 37.3-1 .2-.6.3-4.6.2-9l-.1-8-37.2-.3-37.2-.2v-58.6h56c30.8 0 56 .2 56.1.6 0 .3.1 7.9.2 17l.2 16.5h33l.2-29 .2-29h-110c-60.5 0-110.3.2-110.5.4zM325.5 1112c.1 13.5.1 14-1.9 14.1-1.2 0-10.4.1-20.6.2l-18.5.2-.1 58.2-.1 58.3h2.9c2.5 0 2.8-.4 2.9-3.3 0-1.7 0-26.7.1-55.5V1132l3.6-.1c2.1 0 11.4-.1 20.7-.2l17-.2v-33l-3-.3-3-.3v14.1zM697 1128.5v30.5h-35v5.5h20.5l20.5.1V1098h-6v30.5zM958.5 1098.9c.3.5 14.6 15.2 31.8 32.6 17.1 17.4 39.8 40.4 50.3 51.1 10.5 10.7 19.4 19.4 19.6 19.4.3 0 .4-1.8.4-3.9-.1-3.9-1.6-5.5-47.8-52-45.3-45.7-47.9-48.1-51.3-48.1-2 0-3.4.4-3 .9zM1150.8 1098.7c-.3.4-.4 6.1-.3 12.6 0 7.1-.3 12.1-1 12.6-.5.5-8.2.9-17 .9s-17.4.1-19 .1l-3 .1v160.5l-13.5.2c-22.1.2-20-.1-20 3v2.8h19.5c12.3 0 19.5-.4 19.6-1 .1-.6.2-36.8.3-80.5l.1-79.5h20l20-.1v-31.9l-2.7-.3c-1.4-.2-2.8 0-3 .5zM1723.9 1099.7c0 1-.1 15.5-.1 32.3 0 16.8-.4 30.7-.8 31-.5.3-8.2.5-17.2.4-9.5-.1-16.6.3-16.9.9-.4.5-.4 1.8-.2 2.8.5 1.8 1.8 1.9 20.8 1.9h20.2v-35.5l.1-35.5h-2.9c-2.1 0-2.9.5-3 1.7z"/><path d="M2289.7 1098.7c-.2.5-.4 14.2-.3 30.6l.1 29.7h-35.2l.1 2.7.1 2.8h20.3c17.4 0 20.2-.2 20.3-1.5 0-.8.2-15.8.2-33.2l.2-31.8h-2.7c-1.5 0-2.9.3-3.1.7zM1977.8 1103.5c16.9 12.7 23.4 29.3 19.5 50-1.6 8.6-3.4 13.1-7.7 19.8-6.3 9.7-17.5 18.8-27.8 22.5-4.2 1.5-6.4 3.2-4 3.2.9 0 7 5.8 12 11.3 4.7 5.3 11.9 16.8 15.8 25.2 3.1 6.8 3.6 7.4 6.4 7.3 1.6-.1 3-.6 3-1.3 0-4.6-13.8-27-22.2-36l-5.5-5.9 7.2-4.2c13.6-8 24-21 28-34.9 1-3.3 1.9-10.1 2.1-15.2.3-7.6 0-10.4-1.7-15.5-4.2-12.1-11.5-20.7-23.7-27.5-8-4.5-8.4-4.1-1.4 1.2zM1396.7 1104.8c16.6 13.8 28.3 31.5 34.2 51.7 2.9 10 3.3 12.6 3.6 25.5.5 18.7-2.9 33.3-11.2 49-8.4 15.6-17.3 25.5-32.1 35.8-10.3 7.1-29.4 15.9-38.7 17.8-.5.1-3.9.9-7.5 1.7-3.6.8-9.2 1.8-12.5 2.2-3.3.4-6.9.9-8 1.2-3 .6-26.8.5-33.3-.2-3.1-.3-8-1-10.8-1.6-2.8-.5-6.4-1.2-8-1.5-5.4-.9-17.1-4.3-21.9-6.3-1.1-.5-4.9-2.1-8.5-3.6-3.6-1.5-9.4-4.5-13-6.7l-6.5-3.9 5.5 5.1c11.7 10.8 30.6 19.3 50 22.5 2.5.4 5.4.9 6.5 1.2 3.7.8 36.9 1.1 43 .3 12.9-1.7 16.1-2.2 17.7-2.6 1-.3 2.8-.7 4-1 1.3-.2 3.2-.6 4.3-.8 5.5-1.1 19-6.2 27.5-10.3 32.6-16 53.4-44.2 58.8-79.8.9-5.8.8-28.2-.1-33.5-.6-3.9-2-9.3-4.4-17.5-1.3-4.3-9.5-19-13.4-24.2-5.6-7.2-15-15.7-23.1-21-3.6-2.4-6.9-4.3-7.3-4.3-.3 0 2 2.2 5.2 4.8zM479 1125c-3.7.4-4.5.9-4.5 2.5 0 1.1.6 2.2 1.5 2.6 1.2.4 20.7.4 23.1 0 1.1-.2.4-5.1-.8-5.2-4.7-.4-15.5-.3-19.3.1zM552.8 1124.8c-1.3.3-1.5 3-1.5 19.7v19.5h2.9c2 0 2.8-.5 2.9-1.8 0-.9.1-8.5.2-16.7l.2-15 44-.1c24.2-.1 44.3-.2 44.8-.3.4-.1.7-1.2.7-2.6 0-1.7-.6-2.5-1.7-2.6-5.5-.2-91.2-.4-92.5-.1zM1037.2 1124.8c-1.9.3-2.3.9-2 3l.3 2.6 11.9.1c11 0 11.9-.1 12.6-2 .4-1.1.4-2.4 0-2.9-.8-.8-18.1-1.4-22.8-.8zM1517.1 1125.2c-1.7.6-1.8 2.1-1.7 18 .1 9.5 0 18-.2 18.8-.2 1.3-3 1.5-17.6 1.4l-17.3-.1-.1 2.9-.1 2.8h20.4c20.2 0 20.3 0 20.6-2.3.3-1.2.4-9.7.4-19-.1-11 .2-16.8.9-16.8.6-.1 11-.3 23.1-.4 12.1-.2 22.5-.3 23.2-.4 1.1-.1 1-3.7-.1-4.9-.8-.7-49.5-.8-51.5 0zM1620.7 1125c-.9.4-1.2 14.1-1.2 59l.1 58.5 2.3.3c1.3.2 2.7-.1 3-.6.4-.6.6-25.8.6-56.1 0-36 .3-55.2 1-55.2.6-.1 10.5-.3 22-.4 27.5-.3 25.1-.1 25.1-3 0-2.2-.5-2.5-3.5-2.6-16.5-.4-48.4-.3-49.4.1zM1775.3 1124.8c-4.8.3-5.2.5-4.9 2.5.3 1.2.5 2.4.5 2.7.1.3 5.3.5 11.6.5h11.5v-2.8c0-2.4-.4-2.7-3.2-2.8-1.8 0-4.9-.2-6.8-.2-1.9-.1-5.9-.1-8.7.1zM2069.3 1124.8c-1.7.3-2.3 1-2.3 3v2.7h24.5l.3-3 .3-3h-10.3c-5.7 0-11.3.1-12.5.3zM2144.7 1125.2c-1.2.8-1.8 36-.6 38 .3.5 1.7.8 3 .6l2.4-.3v-33.1h89V1124.7l-46.3-.1c-25.5-.1-46.9.2-47.5.6zM858.9 1125.7c0 .4-.2 1.6-.4 2.5-.4 2.1-1.1 2 12.7 2.2 10 .1 13.2-.4 7-1.1-1.5-.2-4.1-.8-5.8-1.4-1.7-.5-4.2-1.2-5.5-1.4-1.3-.3-3.6-.7-5.1-1.1-1.6-.3-2.8-.2-2.9.3zM207.6 1128.8l.1 2.7 13.1.2 13.1.2-.2-2.7-.2-2.7-13.1-.2-13-.1.2 2.6zM934 1143.5c-.1 1.1-.2 91.2-.1 96.3.1 3 .4 3.3 2.9 3l2.7-.3.1-46.7.1-46.7-2.8-3.3c-1.6-1.8-2.9-2.9-2.9-2.3zM625.9 1180.7c-.1.5-.2 5.3-.3 10.8l-.1 10-34 .2c-18.7.1-35.4.2-37.1.2l-3.1.1v41h2.9c1.5 0 2.8-.6 2.8-1.3.1-.6.2-8.6.3-17.7l.2-16.5 36.5-.1c20.1-.1 36.7-.2 37-.3.5-.1.6-21.5.1-25.9-.1-1.3-5-1.7-5.2-.5zM2218.5 1181.2c-.3.7-.6 5.6-.7 10.8l-.3 9.5-35.7.1c-19.6.1-36.3.4-37 .6-1 .4-1.3 4.9-1.3 20.4l.1 19.9h5.9V1226c.1-9.1.4-17 .7-17.6.5-.7 12.4-1 36.3-1 19.6.1 36.1-.1 36.5-.4 1-.6 1.2-4.9.8-17.5-.3-8.5-.4-9-2.6-9.3-1.2-.2-2.4.3-2.7 1zM1847.7 1209.8c-.2.4-.3 7.9-.3 16.7l.1 16 3 .3 3 .3v-14.2l-.1-14.1 18 .5c10 .3 19.5.8 21.1 1.1 1.7.4 5.2 1.1 7.9 1.6 2.7.6 5.1.9 5.3.6 1.5-1.5-11.9-6.7-21.2-8.1-5.8-.9-36.4-1.5-36.8-.7zM420.9 1220.2c0 1.8-.1 17.2-.2 34.3l-.2 31-102.5.2c-56.4.1-103.7.2-105.2.2-2.3.1-2.8.6-2.8 2.5 0 1.4.7 2.5 1.8 2.8.9.2 49.6.3 108.2.3h106.5l.2-37.3.1-37.2h-2.9c-2.6 0-2.9.3-3 3.2zM2290.9 1225.9c-1.3.5-1.5 4.6-1.4 29.1 0 15.7-.1 29-.3 29.6-.2.8-29.8 1.2-109.5 1.2-60.1 0-110 .1-110.9.1-1.3.1-1.8.9-1.8 2.8v2.8l113.7-.1c62.6-.1 114-.2 114.3-.3.4-.1.5-57.2.1-64.2-.1-1.6-1.6-2-4.2-1zM697 1255.9v29.8H586.6c-60.7 0-110.8.3-111.4.7-1.1.7-1 3.1.2 4.3.4.4 51.8.8 114.2.8H703V1226h-6v29.9zM973.9 1261.2c0 .7-.1 6.5-.2 12.8l-.2 11.5-53 .2c-29.1.1-54.4.2-56.1.2-2.7.1-3.1.4-2.9 2.8l.1 2.7 58.9.1h59l.1-15.8.1-15.7h-2.9c-1.5 0-2.8.6-2.9 1.2zM1670 1272.9v12.9h-65.7c-36.2 0-66.8.1-68 .1-1.8.1-2.3.7-2.3 2.6 0 1.7.6 2.5 1.8 2.6 6.8.5 138.6.3 139.3-.2.8-.5 1.2-9.8 1-25.7-.1-5.1-.2-5.2-3.1-5.2h-3v12.9zM1883.8 1272.7l-.3 12.8-52.5.2c-28.9.1-53.5.2-54.8.2-1.9.1-2.3.6-2 2.8l.3 2.8h115l.3-15.8.3-15.7h-6l-.3 12.7zM2023 1272.9v12.9h-53.2c-29.3 0-53.9.1-54.5.1-.7.1-1.3 1.3-1.3 2.8v2.8h115V1260h-6v12.9zM379 1623.9c0 1.5 11.4 26.2 20.9 45.1 57.4 114.5 134 213.8 229.6 297.5 4.4 3.8 8.2 7.2 8.5 7.5 1.5 1.6 19 15.8 28 22.9 5.8 4.5 11.4 9 12.5 9.9 6.2 5 34 25 48.4 34.6 34.8 23.5 65.3 41.3 104.6 61.1 56.3 28.4 105.7 47.9 164.5 65 17.4 5.1 54.9 14.7 61.5 15.8 1.7.3 6.3 1.2 10.2 2.1 4 .9 8.5 1.8 10 2.1 1.6.3 3.7.6 4.8.9 1.1.2 3.6.6 5.5 1 1.9.3 4.6.8 6 1.1 4.2.8 13.3 2.4 17.5 3 3.8.5 6.4.9 13 2 4 .6 24.8 3.3 30.5 3.9 2.5.3 7 .8 10 1.1 7.8.9 12.2 1.3 23 2 5.2.4 10.6.8 11.9 1 15.1 2.4 96.4 2.4 130.6 0 14.4-1 26-2 34.5-3 2.5-.2 7-.7 10-1 5.4-.6 9.7-1.1 15.5-1.9 1.7-.3 8.2-1.2 14.5-2 6.3-.9 12.2-1.8 13-2.1.8-.2 3.7-.6 6.3-1 5.5-.7 26.5-4.6 37.7-7 4.1-.9 8.4-1.8 9.5-2.1 1.1-.2 4.4-.9 7.2-1.5 2.9-.5 5.4-1 5.5-.9.2.1 1.5-.3 3.1-.9 1.5-.6 3.8-1.3 5-1.5 4.8-.9 24.1-6 40.2-10.6 38.5-11 79.4-25.7 118-42.5 29-12.6 64.2-30.3 92-46.3 7.2-4.2 14-8 15.2-8.6 1.3-.6 2.3-1.4 2.3-1.9 0-.4.5-.7 1.1-.7 1.3 0 32.4-19.7 48.4-30.7 36.2-24.8 73.7-54.6 108.5-86.1 9.4-8.5 47.6-46.6 55.5-55.3 2.8-3.1 6.7-7.4 8.8-9.7 20.6-22.7 47.3-55.6 64.2-79.2 3.7-5.2 7.1-9.7 7.4-10 .3-.3 1.1-1.3 1.6-2.2.6-.9 6.2-9.5 12.6-19 12.7-18.9 23.9-36.4 23.9-37.3 0-.4 1.3-2.6 3-4.9 1.6-2.4 4-6.3 5.3-8.7 1.3-2.4 5.4-9.8 9.2-16.4 13.3-23.5 41.5-80.9 41.5-84.6 0-.6-5.4-.9-14.5-.8l-14.5.2-3.2 7.1c-9.9 21.9-31.1 62.3-44.6 85.1-17.4 29.3-46.1 72.1-61.9 92-1.3 1.6-2.7 3.4-3.1 4-2.3 3.2-20.1 25.5-22.3 28-1.5 1.6-5.9 6.8-9.9 11.5-18.8 22.1-51.3 55.9-72.5 75.5-37.9 35.1-76.6 65.7-117.5 93-10.8 7.1-20.5 13.5-21.5 14.2-38.7 23.7-51.5 30.9-82.5 46.4-19.5 9.8-53 25.1-53 24.2 0-.3-.6-.1-1.2.5-.7.6-4.9 2.4-9.3 4.2-4.4 1.7-9.3 3.7-11 4.4-11.7 5.3-71.4 25.7-82.2 28.1-1 .2-6.7 1.8-12.8 3.5-6 1.8-11.7 3.3-12.5 3.5-.8.2-7.1 1.7-14 3.4-20.4 4.9-46.1 10.3-59.5 12.5-1.6.3-7.2 1.2-12.4 2.1-5.2.9-11 1.8-13 2-2 .2-4.9.6-6.6.9-1.6.2-5.5.8-8.5 1.1-3 .3-6.8.9-8.5 1.1-1.6.3-4.8.7-7 .9-2.2.2-6.5.7-9.5 1-30.6 3.2-63 4.9-97.5 4.8-20.9 0-54.6-1-61-1.8-1.6-.2-7.5-.7-13-1-5.5-.3-11.1-.8-12.5-1-1.4-.2-5.9-.6-10-1s-8.6-.8-10-1c-2.7-.4-6.2-.9-19-2.5-4.7-.6-9.6-1.3-11-1.5-1.4-.3-4.3-.7-6.5-1-14.1-2.1-38.3-6.5-49.5-9-4.1-.9-8.6-1.9-10-2.1-1.4-.3-4.3-1-6.5-1.5s-5.1-1.2-6.5-1.5c-1.4-.2-3.3-.7-4.2-1-.9-.3-2.6-.7-3.8-.9-1.1-.2-5.5-1.4-9.8-2.5-4.2-1.2-8.6-2.4-9.7-2.6-1.1-.2-6.7-1.8-12.5-3.5s-12.2-3.5-14.2-4c-2.1-.5-5.5-1.5-7.5-2.3-2.1-.8-8.1-2.8-13.3-4.4-18.4-5.7-61.7-22-76-28.5-2.5-1.1-4.9-2.2-5.5-2.3-1.8-.4-29.1-13.2-45.1-21.2-22.4-11.1-36.8-19-62.6-34.1-35-20.5-88.2-58.2-120.8-85.7-4.4-3.7-18.5-15.8-19.6-16.9-.6-.5-4.9-4.4-9.5-8.5-9.1-8-54-52.7-62.9-62.6-23.1-25.4-44.1-51.1-64.7-79.2-36-48.8-71.3-108.9-96.2-163.4l-3-6.6h-14.5c-8.1 0-14.6.3-14.6.7z"/><path d="M281 1674.6c0 1.4 11.6 26.6 21.1 45.9 10.5 21.2 19.5 38.2 32.7 61.6 22 39.2 62.5 98.3 93.3 136.4 28.3 34.9 48.8 57.5 81.4 90 21.2 21.1 30.5 29.9 45.5 43 3 2.7 5.7 5.1 6 5.4.7.8 24 20.3 33 27.6 2.5 2 5.4 4.4 6.5 5.3 3.9 3.2 42.1 31.7 46.5 34.7 2.5 1.6 4.7 3.2 5 3.5 1.4 1.5 32.7 22 49 32.2 75.5 46.9 156.3 84.1 240.5 110.7 17.2 5.5 17.3 5.5 30 9 6.1 1.7 12.4 3.5 14 4 12.4 4 58 14.2 86 19.4 18.2 3.4 16.1 3 23.5 4.1 2.5.3 5.4.8 6.5 1 1.1.2 4.5.7 7.5 1.1 3 .4 6.4.9 7.5 1.1 1.1.2 4 .6 6.5.9 2.5.3 10.1 1.2 17 2 15.5 1.9 19.8 2.3 28 3 3.6.3 9 .8 12 1 25.2 2.2 45.6 2.9 86.5 2.9 35.9-.1 53.7-.5 70.5-1.9 2.5-.2 8.3-.6 13-1 4.7-.4 10.3-.8 12.5-1.1 2.2-.2 6.7-.6 10-.9 13.4-1.3 23.9-2.5 27-3.1 1.1-.2 4.5-.6 7.5-.9 3-.3 6.6-.8 8-1 1.4-.2 3.9-.6 5.5-.9 1.7-.3 5.2-.8 7.9-1.1 2.7-.3 7.2-1.1 10-1.6s6.7-1.2 8.6-1.5c1.9-.2 5.5-.9 8-1.4 2.5-.5 7.3-1.4 10.7-2 11-1.9 11.8-2.1 13.5-2.6 1-.3 3-.7 4.5-1 5.4-.9 6.8-1.2 11.8-2.4 2.8-.6 5.9-1.4 7-1.6 2.2-.4 3.9-.8 10.5-2.5 2.5-.6 5.2-1.2 6-1.4.8-.2 5.3-1.3 10-2.5s9.2-2.3 10-2.5c10.8-2.6 48.1-13.8 70-21.2 50.6-17 116.7-45.6 160-69.3 5.2-2.9 12-6.5 15-8.2 28.5-15.5 79.8-47.9 104-65.7 24.4-17.8 64.1-48.7 67-52 .3-.3 6.8-6 14.4-12.6 19.7-16.9 26-22.8 53.1-50 23.8-23.8 31-31.2 43.5-45.4 3.6-4.1 7.6-8.6 8.9-10 1.3-1.4 4-4.6 6-7.1s4.1-5 4.7-5.5c.6-.6 5.1-6 10-12 17.9-21.9 40.7-52.4 54.9-73.2 13.6-20 35.1-54 44-69.8 12.8-22.6 24.4-43.9 29.8-55 10.3-21 24.7-52.2 24.7-53.6 0-.5-6.9-.9-16-.9h-16.1l-5.5 11.7c-7.4 15.8-21.9 44.5-28.9 57.4-10.3 18.8-11.8 21.4-13.6 24.1-1.1 1.4-1.9 2.9-1.9 3.1 0 2.3-37.7 61.1-51.4 80.2-18.9 26.4-36.4 48.8-59.5 76-26.5 31.3-67.5 72.9-101.1 102.6-50.6 44.8-111.7 88.8-169 121.7-24.8 14.3-34.8 19.6-57.8 31.1-15.4 7.7-26 12.7-44.2 20.9-6.7 3-27.5 11.6-35.5 14.7-3.8 1.4-7.9 3.1-9 3.5-1.9.9-13.5 5.3-14.5 5.5-.3.1-1.8.7-3.5 1.4-5.4 2.3-50 17-61.1 20.2-11.1 3.1-38.2 10.5-41.9 11.3-2.6.6-6 1.5-8.2 2.1-1.9.5-18.5 4.3-21.8 5-3 .7-11.7 2.5-14 2.9-1.1.2-5.4 1.1-9.5 2-4.1.8-8.8 1.7-10.5 2-1.6.3-6.8 1.2-11.5 2s-10.3 1.7-12.5 2c-2.3.4-5.2.8-6.5 1.1-1.3.3-4.2.7-6.5 1-2.2.4-5.1.8-6.5 1-1.4.2-5.1.7-8.3 1-3.2.4-6.7.8-7.7 1-1 .2-5 .7-8.7 1-3.7.4-7.5.8-8.3 1-.8.2-5.1.7-9.5 1.1-4.4.4-9.3.8-11 1-50.7 4.9-143.1 4.9-185-.1-2.2-.2-7.1-.7-11-1.1-9-.8-11.9-1.1-17.7-1.8-2.7-.3-6.9-.8-9.5-1.1-2.7-.3-5.9-.7-7.3-1-1.4-.2-4.5-.7-7-1-2.5-.3-5.4-.7-6.5-.9-1.1-.2-4-.7-6.5-1-2.5-.3-5.5-.8-6.7-1-1.1-.3-4.3-.8-7-1.2-5.5-.8-6-.8-16.8-3-4.4-.8-8.9-1.7-10-1.8-2.1-.4-16.6-3.2-20-4-1.1-.2-8.3-1.9-16-3.6-7.7-1.7-15.3-3.5-17-4-1.6-.5-4.8-1.3-7-1.9-2.2-.6-9.2-2.5-15.5-4.2-6.3-1.7-12.2-3.2-13-3.4-7.8-1.8-46.8-14.5-68.5-22.3-57.1-20.5-125.1-52.9-177-84.2-6.6-4-14.5-8.7-17.6-10.6-9.5-5.6-47.7-31.5-61.9-41.8-21.5-15.7-47.6-36.3-63.9-50.4-3-2.6-6.3-5.5-7.5-6.5-20.6-17.9-25-22-53.6-50.7-25.2-25.2-32.1-32.5-49.1-52-4.1-4.7-7.6-8.7-7.9-9-.3-.3-2.5-3-4.9-6-2.5-3-4.9-6-5.5-6.5-3-2.8-29.3-36.9-43.8-56.7-13.4-18.5-50.5-76.2-55.2-85.8-.4-.8-1.2-2.4-1.9-3.5-1.3-2.1-8.3-14.5-12.9-23-4.9-8.9-25.3-49.7-29.3-58.8l-3.9-8.7h-16.3c-9 0-16.3.3-16.3.6z"/><path d="M1120.8 1686.5c-7.1 1.9-11.4 5-13.2 9.4-3.1 7.9 1.5 15.3 11.5 18.6 5 1.7 6 1.9 13.4 2.9 10.5 1.5 11.8 1.8 15.9 3.5 2.2 1 4.8 3 5.5 4.5 1.3 2.4 1.3 2.9-.6 5.4-5.4 7.3-23.9 6.2-35.6-2.1-4.2-3-7.6-3.7-12.7-2.8-.4.1-.5 9.8-.1 14.7.1 1.2 9 1.4 9.2.2.1-.4.3-1.3.4-1.8.1-.6.3-1.6.4-2.4.1-1.1 1-.9 4.4.9 6.4 3.6 14.6 5.3 24 5.1 7-.2 9.1-.7 13.6-3.1 6.6-3.6 9.1-7 9.1-12.5 0-5.8-2.6-9.7-8.5-12.6-5.6-2.7-6.2-2.9-19-5-4.9-.9-10.2-1.8-11.8-2.1-3-.6-8.7-5.4-8.7-7.3 0-.6 1.3-2.4 2.8-4 6.6-6.5 24.2-4.5 31.8 3.7 1.9 2 3.4 2.6 7.1 2.7l4.8.1v-16l-3.7.1c-6.7.2-6.7.2-6.2 2.9.5 3 0 3.1-3.7.4-6.4-4.6-20.3-6.1-30.1-3.4zM1344.1 1686.6c-9 2.4-15.1 8.7-15.1 15.7 0 2.3.4 2.5 4.5 2.4 4 0 4.5-.3 5.5-3.1 1.7-4.8 4.8-7.4 10.5-8.7 13.7-3 25.1 3.2 21.3 11.6-1.5 3.3-3.8 4.7-15.6 9.4-20.4 8-27.9 15.7-26.3 26.9.1.4 12.5.7 27.8.7h27.6l-.1-6c0-3.3-.1-6.5-.1-7.1-.1-.6-2.1-1-4.8-1-4.4.1-4.8.3-5 2.6 0 1.4-.1 3-.2 3.5-.1 1.1-33.5 1.4-34.6.3-.3-.3 1-2.2 3-4.1 3.2-3.1 10.8-6.9 20.5-10.2 10.3-3.5 16.2-8.3 18.1-14.4 2.5-8.4-2.3-15.6-12.3-18.6-6.4-1.9-17.6-1.8-24.7.1zM1420.5 1685.9c-14.1 3.6-22.4 15.1-21.9 30.1.6 17.2 12.8 27.3 32.3 26.6 17.1-.6 28.1-11 28.6-27.1.5-18.9-9.4-29.5-28-30.1-4.4-.2-9.3 0-11 .5zm19.2 8.4c6.1 3.2 9.1 9.7 9.1 19.8 0 14.1-7.7 22-20.8 21.4-7.5-.4-13-3.4-16.1-8.9-1.9-3.4-2.4-5.5-2.3-12.1 0-15.1 7-22.5 20.9-22.1 3.3.1 7.4 1 9.2 1.9z"/><path d="M1421.9 1696.7c-6.4 2.7-9.3 8.2-9.3 17.9 0 8.1 2.5 13.4 7.6 16l3 1.6-3.4-3.5c-4.5-4.5-5.7-8.1-5.4-16.1.4-7.3 2-10.7 6.9-13.6 4.2-2.6 12.1-2.6 16.9-.2 2.4 1.3 3.5 1.5 3.1.6-.7-2-8.1-4.5-12.4-4.2-2.2.1-5.3.8-7 1.5zM1017.8 1689.7c-.5 3.7-.1 4 6.8 3.9l5.1-.1v20.5l-.1 20.6-5.5-.1c-5.4 0-5.5.1-6.2 3.2-.3 1.8-.4 3.4 0 3.4.3.1 15.1.2 32.8.3 21.2.1 32.4-.2 32.6-.9.2-.5.3-4.4.2-8.5l-.1-7.5h-9.9v10h-33.3l-.1-8.7c-.1-4.9.2-8.9.6-8.9.4-.1 5.1-.2 10.3-.3 10.5-.1 12.1-.6 11.3-3.6-.5-1.8-1.4-2-11.5-2h-10.9l.3-8.7.3-8.8h16.2c10.1 0 16.4.4 16.5 1 0 .5.2 2.8.2 5 .1 3.9.1 3.9 4.5 4.3 2.4.2 4.7-.1 5-.7.5-.8.7-13.9.2-16.1-.1-.3-14.7-.5-32.5-.5h-32.4l-.4 3.2zM1182 1695.7v9.3h10v-11.5l9.3.1c5 .1 9.8.2 10.5.3 1 .1 1.2 4.6 1 20.3l-.3 20.3h-14v7h39v-7h-14v-40.9h10l10-.1.3 5.8.3 5.7h10l-.3-9.3-.3-9.2H1182v9.2zM1524.3 1687.6c-.2.6-.3 5.1-.1 10l.3 8.8 4.8.1 4.7.1v-13.1l15.8.1c8.6.1 16.3.2 17 .3.6 0-.6 1.8-2.9 3.8-10.7 9.7-18.8 26.8-18.9 39.8v4l5 .1c5 0 5.8-.7 5.1-4.9-.1-.4.5-3.9 1.3-7.7 2.5-11.8 9.1-22.2 20.9-32.7 2.9-2.6 3.5-3.8 3.3-6.5l-.2-3.3h-27.8c-19.4 0-28 .3-28.3 1.1zM1489 1689c-3.6 1-7.7 2.1-9.2 2.4-2.5.6-2.8 1-2.8 5.1 0 5.1.2 5.2 7.2 3.1l4.7-1.5.3 12.2c.2 6.7.1 14.9-.2 18.3l-.5 6-6.7-.1-6.8-.2v3.4c0 1.8.3 3.4.8 3.4 2.3.4 32.9.5 33.8.2 1.5-.5 1.6-6 .1-6.6-.7-.2-3.3-.3-5.9-.2l-4.8.2-.1-3.6v-23.9c.1-23.1 1.1-21.2-9.9-18.2z"/><path d="M1086.9 1691c0 1.9-.1 6.3-.1 9.7 0 3.4-.3 6.2-.6 6.2-3-.4-10.2.3-9.8.9.3.5 3.1.8 6.3.8l5.7-.1.1-9.3c0-5.1-.3-9.8-.7-10.5-.4-.7-.8.3-.9 2.3zM1583.9 1688.6c0 .5-.2 2.1-.3 3.5-.1 1.6-1.6 3.9-4 6-5.4 4.7-6.2 5.6-9.4 9.7-1.5 2.1-3 3.9-3.3 4.2-.3.3-2 3.5-3.7 7.1-3.3 7.1-4.9 13.9-4.7 20.6 0 2.4-.2 4.4-.5 4.5-.3.1-2.6.2-5.3.3-4.6.2-7.9 1.4-4.1 1.6 1 0 4 .2 6.7.3 3.7.2 4.7-.1 4.8-1.3.3-9.6 1-15.4 2.4-19.6 3.3-9.9 10.3-19.9 18.4-26.3 3.9-3.2 4.6-4.2 4.4-7-.1-3.1-1.2-5.8-1.4-3.6zM1167.9 1693.7c0 2.7-.1 6.4-.2 8.3l-.2 3.5-5.2-.1c-2.9 0-5.3.3-5.3.7 0 .9 5.8 1.5 9.6.9l3-.5.2-8.8c0-4.9-.3-8.7-.8-8.7-.6 0-1 2.1-1.1 4.7zM1257 1698.5v9.5h-5c-2.7 0-5 .4-5 .9 0 .4 2.7.8 6 .9h6v-10.4c0-6.3-.4-10.4-1-10.4s-1 3.8-1 9.5zM1380.9 1691.2c4.4 4.6 5 12.3 1.5 19-2.4 4.7-9.9 9.5-20.2 12.9-9.1 3-18 7.5-16.9 8.5.2.2 3.1-.9 6.5-2.6 3.3-1.6 6.9-3.2 7.9-3.3 1-.2 3.2-.9 4.8-1.6 1.7-.6 4.4-1.7 6-2.3 4.3-1.6 8.6-4.6 11.7-8.2 3-3.4 5.2-11.3 4.2-15.4-.8-3.1-5-9.2-6.5-9.2-.5 0-.1 1 1 2.2zM1453 1689.9c0 .6.4 1.1.9 1.1 1.5 0 6 7.4 7.5 12.3 4.8 16.1-2.1 32.8-16.4 39.5-4.8 2.3-6.8 2.6-16 2.6-8.8 0-11.2-.4-14.7-2.2-5.5-2.9-6.6-2.8-2.3.2 4.1 2.8 8.3 3.8 16.4 4.1 16.3.5 29.2-7.3 34.1-20.6 2.6-7.1 2.5-20.6-.2-26.4-2.7-6-9.3-13.5-9.3-10.6zM1502 1710.5c0 11.8.4 21.5.8 21.5.5 0 .8-9.7.8-21.5s-.3-21.5-.8-21.5c-.4 0-.8 9.7-.8 21.5zM1127.2 1696c-1.9.4-3.9 1.3-4.5 2-1 1-.8 1.1.8.5 3.4-1.3 13.8-1.7 18.4-.7 4.9 1.2 4.4.1-.8-1.7-3.8-1.2-8.9-1.3-13.9-.1zM1348.4 1696.5c-3.9 1.7-5.5 3.7-6.3 7.7-.6 3.1-.9 3.3-5.3 3.3-2.6.1-5 .4-5.4.8-.8.8-.5.9 5.6.9 6.5 0 7.2-.1 6.6-1-.3-.5-.1-2.5.5-4.4.7-2.6 1.9-4 4.3-5.2 3.9-1.8 14.7-2.2 17.8-.5 1.4.7 1.8.8 1.4 0-1.8-2.9-13.9-3.9-19.2-1.6zM1023 1697.1c-1.9.3-3.3.7-3 .9 1.4.6 6 .6 7.1 0 1.8-1.2-.3-1.7-4.1-.9zM1043.4 1697.2c-.8 1.3-.1 11.7.8 11.2.4-.3.8-2.6.8-5.2v-4.8l12.5.1c7 0 13.1-.3 13.8-.7 1.5-1 2.6-.9-13.6-1.1-7.7-.1-14.1.1-14.3.5zM1195.4 1696.9c-.2.2-.4 2.8-.4 5.8v5.3h-5c-2.7 0-5 .4-5 1 0 .5 2.7.8 6 .8l6-.2v-11.3l5.8.2c5.9.1 8.2-.2 8.2-1.4 0-.7-14.9-.9-15.6-.2zM1228.3 1696.8c-2.2.3-2.2.5-2.1 17.8.1 9.6.5 17.4 1 17.4s.8-7.2.7-16c0-8.7.2-16.3.5-16.8s3.2-.8 6.5-.7c3.2.1 6.5-.1 7.2-.6.9-.6 0-.9-2.6-1-2.2 0-5.1-.1-6.5-.2-1.4-.1-3.5-.1-4.7.1zM1537.4 1696.9c-.2.2-.4 3.2-.4 6.6v6.2l-4.7-.2c-2.7-.1-5.2.1-5.8.4-1.4.8 5.2 1.7 9.3 1.2l3.2-.3v-12.5l10.6.1c5.8.1 10.8-.2 11-.6.6-.9.4-.9-12.9-1.1-5.4-.1-10.1 0-10.3.2zM1481.2 1703.7c-2.6 1.3-2.6 1.3 1.2.8 2.2-.2 4.4-.9 4.9-1.4 1.4-1.4-2.7-1-6.1.6zM1109.9 1714.3c3.4 3.7 10.8 6.2 24.1 8.2 6.3.9 12.2 2.1 13.2 2.6.9.5 2.3.9 3 .9.7-.1-.3-.9-2.2-1.9-3.3-1.7-6.5-2.5-15-3.6-11.2-1.3-17.2-3.1-22.3-6.7l-3.2-2.2 2.4 2.7zM1065.4 1714.4c-.3.7-.4 1.7-.3 2.2.5 2.6-.7 2.9-10.8 3h-10.8l-.2 6.2c-.1 3.4.3 6.2.8 6.2s.9-2.4.9-5.4v-5.5l11 .2 11 .2v-4.3c0-4.2-.6-5.4-1.6-2.8zM1168.5 1722c1.3 6.5 1.2 8.1-.6 11.8-5.4 10.9-25.6 15.2-43.4 9.3-7.4-2.5-7.4-2.5-6.8-.2.4 1.6-.1 1.8-4.7 1.7-2.8-.1-5.4.2-5.6.6-.6.9-.4 1 5.6 1 6.8 0 7.3-.1 6.7-1.6-.5-1.2.6-1 5.1.6 7.7 2.7 23.6 2.9 30.7.3 6-2.1 12-6.6 14-10.6 1.9-3.7 1.9-11 0-13.5-1.5-1.8-1.5-1.8-1 .6zM1086.9 1728.2c-.1.7-.1 4.7-.1 8.9v7.5l-31.6-.1c-17.5 0-32.5.1-33.4.3-5.6 1.3 2.7 1.7 32.8 1.6h33.9v-9.3c0-5.1-.3-9.5-.7-9.7-.5-.3-.9.1-.9.8zM1269.1 1735.8l.2 5.8h7.1l7.1-.1v-11l-7.3-.3-7.2-.3.1 5.9zM1387.5 1736.2c0 3.5 0 6.8-.2 7.3-.2.7-9.5 1.1-27.9 1-15.2 0-27.8.3-28.1.7-.2.5-.1.8.4.9 3.7.4 55.7.3 56.4-.2.5-.3 1-3.4 1-7 .1-8.4.1-8.9-.9-8.9-.5 0-.8 2.8-.7 6.2z"/><path d="M1286.8 1738.9l.4 5.8-7.6-.1c-4.2-.1-7.5.3-7.3.8.3.9 15.6 1.5 15.8.6.7-2.9.3-13-.6-13-.6 0-.9 2.2-.7 5.9zM1241 1740.8v3.8l-18.7-.1c-19.1-.1-24.3.3-21 1.4 1.2.5 37.2.6 41 .2 1.1-.1.8-9.1-.3-9.1-.5 0-1 1.7-1 3.8zM1514 1740.8v3.9l-18-.1c-11.4-.1-18 .3-18 .9 0 .8 29.9 1.3 36.6.6 1.3-.1 1.5-9.1.2-9.1-.4 0-.8 1.7-.8 3.8z"/></svg>